<?xml version="1.0" encoding="UTF-8"?> <svg xmlns="http://www.w3.org/2000/svg" viewBox="0 0 66.94 56.59"> <defs> <style>.cls-1{isolation:isolate;}.cls-2{fill:#adada5;}.cls-3{fill:#006080;}.cls-4{fill:#237f9e;}.cls-5{fill:#d1d1c7;}.cls-6{fill:#0a0a07;mix-blend-mode:multiply;opacity:0.1;}.cls-7{fill:#f9b233;}.cls-8{fill:#cf942a;}.cls-9{fill:#fffff2;}.cls-10{fill:#edede1;}.cls-11{fill:#c24116;}.cls-12{fill:#e94e1b;}</style> </defs> <g class="cls-1"> <g id="Слой_2" data-name="Слой 2"> <g id="Layer_2" data-name="Layer 2"> <path class="cls-2" d="M.08,21.09h0a1,1,0,0,1,.13-.95C3.82,15.38,6.76,12.25,6,7.28h4.22c-.17,5.34-4,10-8.64,14.15A.94.94,0,0,1,.08,21.09Z"></path> <rect class="cls-2" x="3.22" y="5.54" width="3.09" height="2.33"></rect> <path class="cls-3" d="M26.2,45.25c-.09,1-.21,2-.39,3A3.38,3.38,0,0,1,22.48,51H8.59a3.39,3.39,0,0,1-3.33-2.77C4,41.12,5.14,33.6,7.12,26.28c1-3.65,2.17-7.26,3.38-10.74a1.76,1.76,0,0,1,1.65-1.17h6.77a1.75,1.75,0,0,1,1.65,1.17C23.86,25,27.05,35.46,26.2,45.25Z"></path> <path class="cls-4" d="M8.59,44.72C8,36.71,10.29,28,13,20a2.71,2.71,0,0,1,2.57-1.86h0A2.7,2.7,0,0,1,18.12,20c2.66,8,5,16.74,4.36,24.75a2.71,2.71,0,0,1-2.7,2.52H11.29A2.72,2.72,0,0,1,8.59,44.72Z"></path> <rect class="cls-2" x="12.21" y="13.43" width="6.66" height="0.93"></rect> <rect class="cls-4" x="11.43" y="11.26" width="8.21" height="1.22"></rect> <path class="cls-5" d="M18,5.06H5.3V8.38l4.13.88a2.52,2.52,0,0,1,2,2.47v1.7h8.21V6.61A1.6,1.6,0,0,0,18,5.06Z"></path> <path class="cls-5" d="M4.85,8.74H2.73A1.14,1.14,0,0,1,1.6,7.61V5.75A1.14,1.14,0,0,1,2.73,4.62H4.85Z"></path> <path class="cls-2" d="M9.09,7.3a.83.83,0,0,1-.83.83.84.84,0,0,1-.84-.83.85.85,0,0,1,.84-.84A.84.84,0,0,1,9.09,7.3Z"></path> <path class="cls-6" d="M26.2,45.25c-.09,1-.21,2-.39,3A3.38,3.38,0,0,1,22.48,51H8.59a3.39,3.39,0,0,1-3.33-2.77C4,41.12,5.14,33.6,7.12,26.28c.13.45.28.9.44,1.34a34.62,34.62,0,0,0,1.78,4.26l.21.4a31.17,31.17,0,0,0,2.8,4.48c.28.36.55.71.83,1l.17.21c.33.38.66.75,1,1.1a22.61,22.61,0,0,0,3.88,3.25c.42.28.84.54,1.27.77l.24.13c.41.22.83.42,1.24.61s1,.41,1.52.58A15.57,15.57,0,0,0,26.2,45.25Z"></path> <path class="cls-7" d="M54.56,9.21V6.86a.39.39,0,0,0-.39-.38H45.83a.38.38,0,0,0-.38.38v2.6a.39.39,0,0,0,.38.39h.23A13,13,0,0,0,45,11.42h-.41a.36.36,0,0,0-.33.19c-.23.41-.46.84-.67,1.29a.39.39,0,0,0,.35.55h0c-.19.44-.38.9-.55,1.38h-.38a.37.37,0,0,0-.36.25c-.15.41-.31.83-.45,1.27a.39.39,0,0,0,.37.51h.11c-.14.45-.28.91-.41,1.38H42a.38.38,0,0,0-.36.27c-.12.42-.23.85-.33,1.28a.39.39,0,0,0,.37.48h.15c-.08.32-.15.65-.22,1l-.09.4h-.33a.39.39,0,0,0-.38.31c-.08.42-.16.84-.25,1.27a.39.39,0,0,0,.38.46h.18c-.07.36-.14.72-.2,1.08,0,.09,0,.19,0,.29h-.32a.39.39,0,0,0-.38.32c-.06.42-.13.85-.2,1.27a.4.4,0,0,0,.39.45h.19c0,.24-.06.49-.1.74l-.09.64H40a.38.38,0,0,0-.38.33l-.15,1.27s0,0,0,.07a116.8,116.8,0,0,0-.68,14.22c0,1.47,0,2.84,0,4.12a2.92,2.92,0,0,0,.7,1.86l.23.22a1.78,1.78,0,0,0,1.14.42H64.5a2.09,2.09,0,0,0,1.93-1.66,16.44,16.44,0,0,0,.5-5c0-.13,0-.25,0-.38C67,35.33,62.81,15.72,54.56,9.21Zm6.56,19.52H55.35a.79.79,0,0,1-.8-.79V13.37a.79.79,0,0,1,1.4-.51h0c.32.46.18,1.25.49,1.75s1.06.71,1.35,1.23,0,1.27.3,1.79,1,.81,1.23,1.34,0,1.28.17,1.82.93.87,1.14,1.42-.12,1.27.06,1.82.89.93,1.06,1.48-.2,1.26,0,1.82a1.67,1.67,0,0,0,.08.2A.79.79,0,0,1,61.12,28.73Z"></path> <rect class="cls-8" x="46.11" y="4.83" width="7.78" height="2.07"></rect> <path class="cls-7" d="M54.26.76V5.29H45.75V.76A.76.76,0,0,1,46.51,0h7a.74.74,0,0,1,.42.12.64.64,0,0,1,.22.24A.73.73,0,0,1,54.26.76Z"></path> <path class="cls-8" d="M54.48,3.94V5.29H45.53V3.94h.22V1.41a.54.54,0,1,1,1.07,0V3.94h.41V1.41a.54.54,0,0,1,1.08,0V3.94h.41V1.41a.54.54,0,0,1,.54-.54.53.53,0,0,1,.53.54V3.94h.41V1.41a.55.55,0,0,1,.55-.54.54.54,0,0,1,.53.54V3.94h.42V1.41a.54.54,0,1,1,1.07,0V3.94h.42V1.41a.53.53,0,0,1,.53-.54.54.54,0,0,1,.54.54V3.94Z"></path> <path class="cls-9" d="M43.66,30.73a2,2,0,0,0-2,1.89c-.25,3.28-.37,6.67-.34,10,0,1.31,0,2.53,0,3.66s.79,2.23,1.71,2.23H62.47A1.79,1.79,0,0,0,64.06,47a16.14,16.14,0,0,0,.42-4.41,52.72,52.72,0,0,0-1.05-10.24,2,2,0,0,0-2-1.66Z"></path> <path class="cls-6" d="M66.94,44c0,.13,0,.25,0,.38a16.44,16.44,0,0,1-.5,5A2.09,2.09,0,0,1,64.5,51H40.93a1.78,1.78,0,0,1-1.14-.42l-.23-.22a2.92,2.92,0,0,1-.7-1.86c0-1.28,0-2.65,0-4.12a116.8,116.8,0,0,1,.68-14.22s0,0,0-.07l.15-1.27a.38.38,0,0,1,.38-.33h.3c0-.22,0-.43.08-.64s.07-.5.1-.74h-.19a.4.4,0,0,1-.39-.45c.07-.42.14-.85.2-1.27a.39.39,0,0,1,.38-.32h.31c0-.1,0-.2.05-.29.06-.36.13-.72.2-1.08H40.9a.39.39,0,0,1-.38-.46c.09-.43.17-.85.25-1.27a.39.39,0,0,1,.38-.31h.33l.09-.4c.07-.32.14-.65.22-1h-.15a.39.39,0,0,1-.37-.48c.1-.43.21-.86.33-1.28a.38.38,0,0,1,.36-.27h.32s0,.05,0,.07c.09.66.18,1.31.31,2,.07.46.16.92.26,1.37.13.69.29,1.38.48,2,.12.47.25.92.39,1.37s.29,1,.46,1.42A35.28,35.28,0,0,0,46,30.73a31.59,31.59,0,0,0,3,4.88c.27.36.54.71.82,1l.17.2c.33.38.67.76,1,1.11a22.61,22.61,0,0,0,3.88,3.25c.42.28.84.53,1.27.77l.24.13c.41.22.83.42,1.24.6a16.61,16.61,0,0,0,6.81,1.47h0A15.66,15.66,0,0,0,66.94,44Z"></path> <path class="cls-10" d="M26.91,15.71V41.12H39.62V15.71a1.46,1.46,0,0,0-1.41-1.51H28.32A1.46,1.46,0,0,0,26.91,15.71Z"></path> <path class="cls-11" d="M39.78,21.27h-13a1.5,1.5,0,0,0-1.5,1.5v2.3h16v-2.3A1.5,1.5,0,0,0,39.78,21.27Z"></path> <path class="cls-12" d="M46,49.36c-.13,2.09-.35,4.18-.66,6.25-.09.55-.85,1-1.69,1H22.85c-.85,0-1.6-.43-1.68-1A75.8,75.8,0,0,1,22.25,28l.15-.68a3.13,3.13,0,0,1,2.86-2.44.78.78,0,0,1,.22,0H41.07a.75.75,0,0,1,.21,0,3.12,3.12,0,0,1,2.86,2.44A77.92,77.92,0,0,1,46,49.36Z"></path> <path class="cls-9" d="M43.2,45.65a74.52,74.52,0,0,0-.62-10.15A1.57,1.57,0,0,0,41,34.14H25.52A1.56,1.56,0,0,0,24,35.5a73,73,0,0,0-.62,10.15,1.56,1.56,0,0,0,1.56,1.54H41.63A1.57,1.57,0,0,0,43.2,45.65Z"></path> <path class="cls-5" d="M39.59,19.34H27a.48.48,0,0,0-.48.48V21.3h13.6V19.82A.48.48,0,0,0,39.59,19.34Z"></path> <path class="cls-5" d="M29.43,19.85a.76.76,0,0,1-.76.75h0a.76.76,0,0,1-.75-.75V16.36a.75.75,0,0,1,.75-.75h0a.75.75,0,0,1,.76.75Z"></path> <path class="cls-5" d="M31.72,19.85a.75.75,0,0,1-.75.75h0a.75.75,0,0,1-.75-.75V16.36a.74.74,0,0,1,.75-.75h0a.74.74,0,0,1,.75.75Z"></path> <path class="cls-5" d="M34,19.85a.75.75,0,0,1-.75.75h0a.75.75,0,0,1-.75-.75V16.36a.74.74,0,0,1,.75-.75h0a.74.74,0,0,1,.75.75Z"></path> <path class="cls-5" d="M36.32,19.85a.76.76,0,0,1-.75.75h0a.76.76,0,0,1-.76-.75V16.36a.75.75,0,0,1,.76-.75h0a.75.75,0,0,1,.75.75Z"></path> <path class="cls-5" d="M38.62,19.85a.76.76,0,0,1-.75.75h0a.76.76,0,0,1-.76-.75V16.36a.75.75,0,0,1,.76-.75h0a.75.75,0,0,1,.75.75Z"></path> <path class="cls-6" d="M46,49.36c-.13,2.09-.35,4.18-.66,6.25-.09.55-.85,1-1.69,1H22.85c-.85,0-1.6-.43-1.68-1A75.8,75.8,0,0,1,22.25,28c.13.45.27.89.43,1.33a39.84,39.84,0,0,0,2,4.81l.09.17A34.3,34.3,0,0,0,26.91,38c.39.59.78,1.15,1.19,1.69s.62.8.94,1.17a1.5,1.5,0,0,0,.2.23l0,0c.36.41.73.83,1.1,1.21A24.66,24.66,0,0,0,34.75,46c.47.32,1,.6,1.43.87l.28.15.33.17c.36.18.71.35,1.07.51a18.87,18.87,0,0,0,7.7,1.66H46Z"></path> </g> </g> </g> </svg> 